<svg width="192" height="192" viewBox="0 0 192 192" fill="none" xmlns="http://www.w3.org/2000/svg">
<path d="M136 24C146.609 24 156.783 28.2143 164.284 35.7157C171.786 43.2172 176 53.3913 176 64V128C176 138.609 171.786 148.783 164.284 156.284C156.783 163.786 146.609 168 136 168H24C21.8783 168 19.8434 167.157 18.3431 165.657C16.8429 164.157 16 162.122 16 160V64C16 53.3913 20.2143 43.2172 27.7157 35.7157C35.2172 28.2143 45.3913 24 56 24H136ZM136 40H56C49.6348 40 43.5303 42.5286 39.0294 47.0294C34.5286 51.5303 32 57.6348 32 64V152H136C142.365 152 148.47 149.471 152.971 144.971C157.471 140.47 160 134.365 160 128V64C160 57.6348 157.471 51.5303 152.971 47.0294C148.47 42.5286 142.365 40 136 40ZM72 80C74.1217 80 76.1566 80.8429 77.6569 82.3431C79.1571 83.8434 80 85.8783 80 88V104C80 106.122 79.1571 108.157 77.6569 109.657C76.1566 111.157 74.1217 112 72 112C69.8783 112 67.8434 111.157 66.3431 109.657C64.8429 108.157 64 106.122 64 104V88C64 85.8783 64.8429 83.8434 66.3431 82.3431C67.8434 80.8429 69.8783 80 72 80ZM120 80C121.959 80.0003 123.851 80.7196 125.315 82.0217C126.779 83.3238 127.715 85.118 127.944 87.064L128 88V104C127.998 106.039 127.217 108 125.817 109.483C124.417 110.966 122.504 111.858 120.469 111.977C118.433 112.097 116.429 111.435 114.865 110.126C113.302 108.817 112.297 106.961 112.056 104.936L112 104V88C112 85.8783 112.843 83.8434 114.343 82.3431C115.843 80.8429 117.878 80 120 80Z" fill="black"/>
</svg>
