<svg width="719" height="192" viewBox="0 0 719 192" fill="none" xmlns="http://www.w3.org/2000/svg">
<path d="M226.673 71.93V66.71H274.553V71.93H253.493V136.64H247.733V71.93H226.673ZM324.359 136.64V103.43H289.259V136.64H283.499V66.71H289.259V98.3H324.359V66.71H330.119V136.64H324.359ZM344.847 136.64V66.71H384.447V71.93H350.607V98.21H380.847V103.43H350.607V131.51H384.897V136.64H344.847ZM420.559 137.81C411.919 137.81 405.529 134.93 401.389 129.62C396.079 122.96 394.369 113.24 394.369 101.63C394.369 90.2 396.079 80.39 401.389 73.73C405.529 68.51 411.919 65.54 420.559 65.54C436.219 65.54 445.039 74.99 446.029 89.48H440.179C439.279 77.96 432.799 70.67 420.559 70.67C414.169 70.67 409.219 72.92 405.979 76.88C401.659 82.37 400.129 90.38 400.129 101.63C400.129 112.97 401.659 120.98 405.979 126.47C409.219 130.52 414.169 132.77 420.559 132.77C432.799 132.77 439.279 125.48 440.179 113.87H446.029C445.039 128.45 436.219 137.81 420.559 137.81ZM497.466 111.71C497.466 128 490.716 137.81 476.406 137.81C462.096 137.81 455.256 128 455.256 111.71C455.256 95.33 462.096 85.52 476.406 85.52C490.716 85.52 497.466 95.33 497.466 111.71ZM460.746 111.71C460.746 125.3 465.426 133.04 476.406 133.04C487.296 133.04 491.976 125.3 491.976 111.71C491.976 98.03 487.296 90.29 476.406 90.29C465.426 90.29 460.746 98.03 460.746 111.71ZM572.378 136.64V103.79C572.378 94.79 567.968 90.29 560.408 90.29C552.218 90.29 545.918 97.76 545.918 111.71V136.64H540.338V103.79C540.338 94.79 536.018 90.29 528.368 90.29C520.178 90.29 513.878 97.76 513.878 111.71V136.64H508.388V86.69H513.878V96.23C516.128 89.57 521.528 85.52 529.358 85.52C537.098 85.52 542.948 89.57 544.838 97.04C547.448 90.29 552.578 85.52 561.488 85.52C571.928 85.52 577.958 92 577.958 103.7V136.64H572.378ZM654.468 136.64V103.79C654.468 94.79 650.058 90.29 642.498 90.29C634.308 90.29 628.008 97.76 628.008 111.71V136.64H622.428V103.79C622.428 94.79 618.108 90.29 610.458 90.29C602.268 90.29 595.968 97.76 595.968 111.71V136.64H590.478V86.69H595.968V96.23C598.218 89.57 603.618 85.52 611.448 85.52C619.188 85.52 625.038 89.57 626.928 97.04C629.538 90.29 634.668 85.52 643.578 85.52C654.018 85.52 660.048 92 660.048 103.7V136.64H654.468ZM672.298 117.56V86.69H677.878V115.85C677.878 127.91 682.378 133.04 691.108 133.04C700.288 133.04 706.948 125.3 707.038 111.98V86.69H712.618V136.64H707.038V127.01C704.518 133.4 699.028 137.81 690.028 137.81C678.508 137.81 672.298 130.34 672.298 117.56Z" fill="black"/>
<g clip-path="url(#clip0_87_407)">
<path d="M54.173 56.8889C61.5685 56.8889 68.6611 53.8921 73.8905 48.5577C79.1199 43.2233 82.0577 35.9884 82.0577 28.4444C82.0577 20.9005 79.1199 13.6656 73.8905 8.33118C68.6611 2.99682 61.5685 0 54.173 0C46.7776 0 39.685 2.99682 34.4556 8.33118C29.2262 13.6656 26.2884 20.9005 26.2884 28.4444C26.2884 35.9884 29.2262 43.2233 34.4556 48.5577C39.685 53.8921 46.7776 56.8889 54.173 56.8889ZM54.173 49.7778C51.4266 49.7778 48.7071 49.226 46.1698 48.1539C43.6325 47.0818 41.327 45.5104 39.385 43.5294C37.443 41.5484 35.9025 39.1966 34.8515 36.6084C33.8005 34.0201 33.2596 31.246 33.2596 28.4444C33.2596 25.6429 33.8005 22.8688 34.8515 20.2805C35.9025 17.6923 37.443 15.3405 39.385 13.3595C41.327 11.3785 43.6325 9.80712 46.1698 8.73502C48.7071 7.66292 51.4266 7.11111 54.173 7.11111C59.7196 7.11111 65.0391 9.35872 68.9611 13.3595C72.8832 17.3603 75.0865 22.7865 75.0865 28.4444C75.0865 34.1024 72.8832 39.5286 68.9611 43.5294C65.0391 47.5302 59.7196 49.7778 54.173 49.7778ZM137.827 56.8889C145.222 56.8889 152.315 53.8921 157.544 48.5577C162.774 43.2233 165.712 35.9884 165.712 28.4444C165.712 20.9005 162.774 13.6656 157.544 8.33118C152.315 2.99682 145.222 0 137.827 0C130.431 0 123.339 2.99682 118.11 8.33118C112.88 13.6656 109.942 20.9005 109.942 28.4444C109.942 35.9884 112.88 43.2233 118.11 48.5577C123.339 53.8921 130.431 56.8889 137.827 56.8889ZM137.827 49.7778C135.081 49.7778 132.361 49.226 129.824 48.1539C127.286 47.0818 124.981 45.5104 123.039 43.5294C121.097 41.5484 119.556 39.1966 118.505 36.6084C117.454 34.0201 116.913 31.246 116.913 28.4444C116.913 25.6429 117.454 22.8688 118.505 20.2805C119.556 17.6923 121.097 15.3405 123.039 13.3595C124.981 11.3785 127.286 9.80712 129.824 8.73502C132.361 7.66292 135.081 7.11111 137.827 7.11111C143.374 7.11111 148.693 9.35872 152.615 13.3595C156.537 17.3603 158.74 22.7865 158.74 28.4444C158.74 34.1024 156.537 39.5286 152.615 43.5294C148.693 47.5302 143.374 49.7778 137.827 49.7778ZM123.885 85.3333C123.885 92.8773 120.947 100.112 115.717 105.447C110.488 110.781 103.395 113.778 96 113.778C88.6045 113.778 81.512 110.781 76.2826 105.447C71.0532 100.112 68.1154 92.8773 68.1154 85.3333C68.1154 77.7894 71.0532 70.5544 76.2826 65.2201C81.512 59.8857 88.6045 56.8889 96 56.8889C103.395 56.8889 110.488 59.8857 115.717 65.2201C120.947 70.5544 123.885 77.7894 123.885 85.3333ZM116.913 85.3333C116.913 79.6754 114.71 74.2492 110.788 70.2484C106.866 66.2476 101.547 64 96 64C90.4534 64 85.134 66.2476 81.2119 70.2484C77.2899 74.2492 75.0865 79.6754 75.0865 85.3333C75.0865 90.9913 77.2899 96.4175 81.2119 100.418C85.134 104.419 90.4534 106.667 96 106.667C101.547 106.667 106.866 104.419 110.788 100.418C114.71 96.4175 116.913 90.9913 116.913 85.3333ZM41.9387 145.813C41.667 143.583 41.863 141.32 42.5137 139.174C43.1644 137.027 44.2549 135.046 45.7129 133.361C47.1709 131.677 48.9632 130.328 50.9709 129.404C52.9787 128.479 55.1561 128.001 57.3589 128H134.627C136.83 128.001 139.007 128.479 141.015 129.404C143.023 130.328 144.815 131.677 146.273 133.361C147.731 135.046 148.822 137.027 149.472 139.174C150.123 141.32 150.319 143.583 150.047 145.813C148.484 158.566 142.409 170.297 132.963 178.802C123.518 187.307 111.353 192.001 98.7536 192H93.2325C80.6347 191.999 68.471 187.305 59.0269 178.8C49.5829 170.295 43.5087 158.565 41.9456 145.813M57.3589 135.111C52.2072 135.111 48.2266 139.719 48.861 144.932C50.2134 155.963 55.4687 166.112 63.6393 173.47C71.81 180.827 82.3335 184.888 93.2325 184.889H98.7536C109.653 184.888 120.176 180.827 128.347 173.47C136.517 166.112 141.773 155.963 143.125 144.932C143.274 143.703 143.166 142.455 142.807 141.273C142.448 140.09 141.847 138.998 141.044 138.07C140.24 137.141 139.253 136.397 138.147 135.887C137.041 135.377 135.841 135.113 134.627 135.111H57.3589ZM157.918 132.068C156.832 129.852 155.453 127.799 153.819 125.966C162.032 123.364 169.335 118.404 174.857 111.678C180.378 104.953 183.883 96.747 184.952 88.0427C185.101 86.8138 184.993 85.5666 184.634 84.3837C184.275 83.2007 183.674 82.109 182.871 81.1806C182.067 80.2523 181.08 79.5085 179.974 78.9985C178.868 78.4885 177.668 78.2239 176.454 78.2222H133.714C133.273 75.7932 132.608 73.4122 131.727 71.1111H176.461C178.664 71.1121 180.841 71.5906 182.849 72.5149C184.857 73.4392 186.649 74.7882 188.107 76.4725C189.565 78.1568 190.656 80.1379 191.306 82.2846C191.957 84.4314 192.153 86.6946 191.881 88.9244C190.692 98.6165 186.888 107.781 180.894 115.399C174.9 123.016 166.951 128.786 157.932 132.068M15.5319 71.1111H60.2658C59.3921 73.3867 58.7322 75.757 58.286 78.2222H15.5319C10.3802 78.2222 6.39967 82.8302 7.03405 88.0427C8.10367 96.7478 11.6096 104.954 17.1322 111.68C22.6548 118.405 29.9602 123.365 38.1742 125.966C36.5377 127.798 35.1561 129.851 34.0682 132.068C25.0492 128.786 17.1 123.016 11.1059 115.399C5.1119 107.781 1.30828 98.6165 0.11866 88.9244C-0.152909 86.6952 0.0429229 84.4326 0.693187 82.2863C1.34345 80.1401 2.43331 78.1593 3.89057 76.4752C5.34784 74.791 7.13926 73.4418 9.14618 72.5171C11.1531 71.5923 13.3297 71.1131 15.5319 71.1111Z" fill="black"/>
</g>
<defs>
<clipPath id="clip0_87_407">
<rect width="192" height="192" fill="white"/>
</clipPath>
</defs>
</svg>
