<svg width="192" height="192" viewBox="0 0 192 192" fill="none" xmlns="http://www.w3.org/2000/svg">
<path d="M133.5 31.5C117.75 31.5 104.055 38.6025 96 50.505C87.945 38.6025 74.25 31.5 58.5 31.5C46.5695 31.5139 35.1317 36.2594 26.6955 44.6955C18.2594 53.1317 13.5139 64.5695 13.5 76.5C13.5 98.4 27.15 121.192 54.075 144.232C66.4129 154.746 79.7402 164.039 93.87 171.982C94.5248 172.334 95.2566 172.519 96 172.519C96.7434 172.519 97.4752 172.334 98.13 171.982C112.26 164.039 125.587 154.746 137.925 144.232C164.85 121.192 178.5 98.4 178.5 76.5C178.486 64.5695 173.741 53.1317 165.304 44.6955C156.868 36.2594 145.43 31.5139 133.5 31.5ZM96 162.833C83.6925 155.73 22.5 118.29 22.5 76.5C22.5099 66.9553 26.306 57.8043 33.0551 51.0551C39.8043 44.306 48.9553 40.5099 58.5 40.5C73.71 40.5 86.4825 48.6225 91.8375 61.7025C92.1765 62.5278 92.7533 63.2338 93.4944 63.7306C94.2356 64.2274 95.1077 64.4926 96 64.4926C96.8923 64.4926 97.7644 64.2274 98.5056 63.7306C99.2467 63.2338 99.8235 62.5278 100.163 61.7025C105.518 48.6225 118.29 40.5 133.5 40.5C143.045 40.5099 152.196 44.306 158.945 51.0551C165.694 57.8043 169.49 66.9553 169.5 76.5C169.5 118.29 108.307 155.73 96 162.833Z" fill="black"/>
</svg>
